/* XPM */
static char *disconnect_8bit_icon[] = {
/* width height ncolors chars_per_pixel */
"48 47 6 1",
/* colors */
"` c #000000000000",
"a c #AEBAAAAAAEBA",
"b c #6F6C89E776B9",
"c c #BEBEBEBEBEBE",
"d c #FFFFFFFFFFFF",
"e c #9EB2A0709D6B",
/* pixels */
"````````````````````````````````````````````````",
"`bbbbbbbbbbbbbbbbbbbbbbbbbbbbeeeeeeeeeeeeeeeeeed",
"`bbbbbbbbbbbbbbbbbbbbbbbbbbbeeeeeeeeeeeeeeeeeeed",
"`bbb```bbbbbbbbbbbbbbbbbbbbeeeeeeeeeeeeee``bdeed",
"`bb`````bbbbbbbbbbbbbbbbbbeeeeeeeeeeeeee``badeed",
"`bb``````bbbbbbbbbbbbbbbbeeeeeeeeeeeeee``bacdeed",
"`bb```````bbbbbbbbbbbbbbeeeeeeeeeeeeee``bacddeed",
"`bbb```````bbbbbbbbbbbbeeeeeeeeeeeeee``bacddeead",
"`bbbb```````bbbbbbbbbbeeeeeeeeeeeeee``bacddeeaad",
"`bbbbb```````bbbbbbbbeeeeeeeeeeeeee``bacddeeaaad",
"`bbbbbb```````bbbbbbeeeeeeeeeeeeee``bacddeeaaaad",
"`bbbbbbb```````bbbbeeeeeeeeeeeeee``bacddeeaaaaad",
"`bbbbbbbb```````bbeeeeeeeeeeeeee``bacddeeaaaaaad",
"`bbbbbbbbb```````eeeeeeeeeeeeee``bacddeeaaaaaaad",
"`bbbbbbbbbb```````eeeeeeeeeeee``bacddeeaaaaaaaad",
"`bbbbbbbbbbb```````eeeeeeeeee``bacddeeaaaaaaaaad",
"`bbbbbbbbbbbb```````eeeeeeee``bacddeeaaaaaaaaaad",
"`bbbbbbbbbbbbe```````eeeeee``bacddeeaaaaaaaaaaad",
"`bbbbbbbbbbbeee```````eeee``bacddeeaaaaaaaaaaaad",
"`bbbbbbbbbbeeeee```````ee``bacddeeaaaaaaaaaaaaad",
"`bbbbbbbbbeeeeeee`````````bacddeeaaaaaaaaaaaaaad",
"`bbbbbbbbeeeeeeeee```````bacddeeaaaaaaaaaaaaaacd",
"`bbbbbbbeeeeeeeeeee`````bacddeeaaaaaaaaaaaaaaccd",
"`bbbbbbeeeeeeeeeeeee`````cddeeaaaaaaaaaaaaaacccd",
"`bbbbbeeeeeeeeeeeeee``b``dddeaaaaaaaaaaaaaaccccd",
"`bbbbeeeeeeeeeeeeee``bacdddddaaaaaaaaaaaaacccccd",
"`bbbeeeeeeeeeeeeee``bacdddddddaaaaaaaaaaaccccccd",
"`bbeeeeeeeeeeeeee``bacdddddddddaaaaaaaaacccccccd",
"`beeeeeeeeeeeeee``bacddeedddddddaaaaaaaccccccccd",
"`eeeeeeeeeeeeee``bacddeeaadddddddaaaaacccccccccd",
"`eeeeeeeeeeeee``bacddeeaaaadddddddaaaccccccccccd",
"`eeeeeeeeeeee``bacddeeaaaaaadddddddacccccccccccd",
"`eeeeeeeeeee``bacddeeaaaaaaaadddddddcccccccccccd",
"`eeeeeeeeee``bacddeeaaaaaaaaaadddddddccccccccccd",
"`eeeeeeeee``bacddeeaaaaaaaaaaaadddddddcccccccccd",
"`eeeeeeee``bacddeeaaaaaaaaaaaaaadddddddccccccccd",
"`eeeeeee``bacddeeaaaaaaaaaaaaaaccdddddddcccccccd",
"`eeeeee``bacddeeaaaaaaaaaaaaaaccccdddddddccccccd",
"`eeeee``bacddeeaaaaaaaaaaaaaaccccccdddddddcccccd",
"`eeee``bacddeeaaaaaaaaaaaaaaccccccccdddddddccccd",
"`eee``bacddeeaaaaaaaaaaaaaaccccccccccdddddddcccd",
"`ee``bacddeeaaaaaaaaaaaaaaccccccccccccdddddddccd",
"`ee`bacddeeaaaaaaaaaaaaaaccccccccccccccddddddccd",
"`eebacddeeaaaaaaaaaaaaaaccccccccccccccccdddddccd",
"`eeddddeeaaaaaaaaaaaaaaccccccccccccccccccddddccd",
"`eeeeeeeaaaaaaaaaaaaaacccccccccccccccccccccccccd",
"`eeeeeeaaaaaaaaaaaaaaccccccccccccccccccccccccccd"
};
