/* XPM */
static char *site_mgr_8bit_icon[] = {
/* width height ncolors chars_per_pixel */
"47 47 4 1",
/* colors */
"` c #000000000000",
"a c #AEBAAAAAAEBA",
"b c #4AB65E965275",
"c c #FFFFFFFFFFFF",
/* pixels */
"``````````````````````````````````````````````c",
"`ccb``````````````````````````````````````ccb`c",
"`ca```````````````````````````````````````ca``c",
"`b````````````````````````````````````````b```b",
"``````````````````````````````````````````````b",
"`aaaaaaaaaaaaaaaaaaaaaaaaaaaaaaaaaaaaaaaaaaaa`b",
"`aaaaaaaaaaaaaaaaaaaaaaaaaaaaaaaaaaaaaaaaaaaa`b",
"`aa```````````````````````````````````````baa`b",
"`aa`ba`aaaaacccccccccacccccccccccacccccccacaa`b",
"`aa`abbabbbbcbbbbbbbb`cbbbbbbbbbb`cbbbbbb`caa`b",
"`aa`ba`abbbbcbbbbbbbb`cbbbbbbbbbb`cbbbbbb`caa`b",
"`aa`abbabbbba`````````a```````````a```````caa`b",
"`aa`ba`aaaaaaaaaaaaaaaaaaaaaaaaaaaaaaaaaaacaa`b",
"`aa`abbabbbbaaaaaaaaaaaaaaaaaaaaaaaaaaaaaacaa`b",
"`aa`ba`abbbbaabababaaaaababababaaaaababaaacaa`b",
"`aa`abbabbbbaabababaaaaababababaaaaababaaacaa`b",
"`aa`ba`aaaaaaaaaaaaaaaaaaaaaaaaaaaaaaaaaaacaa`b",
"`aa`abbabbbbaaaaaaaaaaaaaaaaaaaaaaaaaaaaaacaa`b",
"`aa`bb`abbbbaababababaaabababaaaaaaababaaacaa`b",
"`aa`ccbabbbbaababababaaabababaaaaaaababaaacaa`b",
"`aa`ca`aaaaaaaaaaaaaaaaaaaaaaaaaaaaaaaaaaacaa`b",
"`aa`b``abbbbaaaaaaaaaaaaaaaaaaaaaaaaaaaaaacaa`b",
"`aa`ccbabbbbaabababaaaaababababaaaaababaaacaa`b",
"`aa`ca`abbbbaabababaaaaababababaaaaababaaacaa`b",
"`aa`b``aaaaaaaaaaaaaaaaaaaaaaaaaaaaaaaaaaacaa`b",
"`aabcccccccccccccccccccccccccccccccccccccccaa`b",
"`aaaaaaaaaaaaaaaaaaaaaaaaaaaaaaaaaaaaaaaaaaaa`b",
"`aaaaaaaaaaaaaaaaaaaaaaaaaaaaaaaaaaaaaaaaaaaa`b",
"`aaaaaaaaaaaaaaaaaaaaaaaaaaaaaaaaaaaaaaaaaaaa`b",
"`aaaaaaaaaaaaaaaaaaaaaaaaaaaabbbbbbbbbbbbbaaa`b",
"`aaccbababababaaaaaababababaabccccccccccccaaa`b",
"`aaca`ababababaaaaaababababaabccccccccccccaaa`b",
"`aab``aaaaaaaaaaaaaaaaaaaaaaaaaaaaaaaaaaaaaaa`b",
"`aaaaaaaaaaaaaaaaaaaaaaaaaaaabbbbbbbbbbbbbaaa`b",
"`aaccbabababaaaaaaaaaabababaabccccccccccccaaa`b",
"`aaca`abababaaaaaaaaaabababaabccccccccccccaaa`b",
"`aab``aaaaaaaaaaaaaaaaaaaaaaaaaaaaaaaaaaaaaaa`b",
"`aaaaaaaaaaaaaaaaaaaaaaaaaaaaaaaaaaaaaaaaaaaa`b",
"`aaaaaaaaaaaaaaaaaaaaaaaaaaaaaaaaaaaaaaaaaaaa`b",
"`aaaaaaaaaaaaaccccccccbaccccccccbaccccccccbaa`b",
"`aaaaaaaaaaaaacaaaaaaa`acaaaaaaa`acaaaaaaa`aa`b",
"`aaaaaaaaaaaaacaaaaaaa`acaaaaaaa`acaaaaaaa`aa`b",
"`aaaaaaaaaaaaab````````ab````````ab````````aa`b",
"`aaaaaaaaaaaaaaaaaaaaaaaaaaaaaaaaaaaaaaaaaaaa`b",
"`aaaaaaaaaaaaaaaaaaaaaaaaaaaaaaaaaaaaaaaaaaaa`b",
"``````````````````````````````````````````````b",
"ccccbbbbbbbbbbbbbbbbbbbbbbbbbbbbbbbbbbbbbbbbbbb"
};
